HIERARCHY
ROOT SpineBase
{
  OFFSET 0.000000 0.000000 0.000000
  CHANNELS 6 Xposition Yposition Zposition Zrotation Xrotation Yrotation
  JOINT SpineMid
  {
    OFFSET -0.000000 29.956234 0.000000
    CHANNELS 3 Zrotation Xrotation Yrotation
    JOINT SpineShoulder
    {
      OFFSET 0.051639 22.076646 -0.705114
      CHANNELS 3 Zrotation Xrotation Yrotation
      JOINT Neck
      {
        OFFSET 0.049195 7.240381 -0.559205
        CHANNELS 3 Zrotation Xrotation Yrotation
        JOINT Head
        {
          OFFSET -2.031767 12.330159 0.346716
          CHANNELS 3 Zrotation Xrotation Yrotation
          End Site
          {
            OFFSET 0 0 0
          }
        }
      }
      JOINT ShoulderLeft
      {
        OFFSET -16.631089 -4.864087 -3.710928
        CHANNELS 3 Zrotation Xrotation Yrotation
        JOINT ElbowLeft
        {
          OFFSET 0.503972 -19.334983 -14.707129
          CHANNELS 3 Zrotation Xrotation Yrotation
          JOINT WristLeft
          {
            OFFSET 22.341650 -3.255289 -2.859426
            CHANNELS 3 Zrotation Xrotation Yrotation
            JOINT HandLeft
            {
              OFFSET 4.460136 0.383072 0.558861
              CHANNELS 3 Zrotation Xrotation Yrotation
              JOINT HandTipLeft
              {
                OFFSET 6.428939 0.282043 -1.140371
                CHANNELS 3 Zrotation Xrotation Yrotation
                End Site
                {
                  OFFSET 0 0 0
                }
              }
              JOINT ThumbLeft
              {
                OFFSET -0.871946 -6.232361 5.492288
                CHANNELS 3 Zrotation Xrotation Yrotation
                End Site
                {
                  OFFSET 0 0 0
                }
              }
            }
          }
        }
      }
      JOINT ShoulderRight
      {
        OFFSET 16.145656 -5.336181 -7.044634
        CHANNELS 3 Zrotation Xrotation Yrotation
        JOINT ElbowRight
        {
          OFFSET -1.324233 -19.727353 -12.769179
          CHANNELS 3 Zrotation Xrotation Yrotation
          JOINT WristRight
          {
            OFFSET -21.632834 -5.466848 -2.751766
            CHANNELS 3 Zrotation Xrotation Yrotation
            JOINT HandRight
            {
              OFFSET -6.770796 5.721068 2.803319
              CHANNELS 3 Zrotation Xrotation Yrotation
              JOINT HandTipRight
              {
                OFFSET -7.524764 2.168746 0.671218
                CHANNELS 3 Zrotation Xrotation Yrotation
                End Site
                {
                  OFFSET 0 0 0
                }
              }
              JOINT ThumbRight
              {
                OFFSET -4.415945 -3.045331 -2.044563
                CHANNELS 3 Zrotation Xrotation Yrotation
                End Site
                {
                  OFFSET 0 0 0
                }
              }
            }
          }
        }
      }
    }
  }
  JOINT HipLeft
  {
    OFFSET -5.627497 0.009867 -3.076505
    CHANNELS 3 Zrotation Xrotation Yrotation
    JOINT KneeLeft
    {
      OFFSET -6.123324 -36.019324 6.355026
      CHANNELS 3 Zrotation Xrotation Yrotation
      JOINT AnkleLeft
      {
        OFFSET -1.434066 -36.521557 18.461203
        CHANNELS 3 Zrotation Xrotation Yrotation
        JOINT FootLeft
        {
          OFFSET -1.065151 -9.037168 -3.235334
          CHANNELS 3 Zrotation Xrotation Yrotation
          End Site
          {
            OFFSET 0 0 0
          }
        }
      }
    }
  }
  JOINT HipRight
  {
    OFFSET 6.420894 0.447247 -4.659904
    CHANNELS 3 Zrotation Xrotation Yrotation
    JOINT KneeRight
    {
      OFFSET 8.588320 -37.361739 3.619988
      CHANNELS 3 Zrotation Xrotation Yrotation
      JOINT AnkleRight
      {
        OFFSET 4.325036 -33.181278 16.595001
        CHANNELS 3 Zrotation Xrotation Yrotation
        JOINT FootRight
        {
          OFFSET -0.903221 -5.220911 -13.792001
          CHANNELS 3 Zrotation Xrotation Yrotation
          End Site
          {
            OFFSET 0 0 0
          }
        }
      }
    }
  }
}
MOTION
Frames: 5
Frame Time: 0.033333
-35.693237 82.956430 356.275980 -0.411101 -0.729101 9.254937 -0.117654 -0.262100 -9.271481 0.025367 -0.152562 -0.015307 -1.356926 -2.664512 -0.582149 0.000000 0.000000 0.000000 -1.359483 -2.584035 1.320748 2.705210 4.180683 1.179442 -3.808939 -0.583546 3.006084 3.744769 -0.183823 -0.208026 0.000000 0.000000 0.000000 0.000000 0.000000 0.000000 -0.909906 1.075782 0.941016 9.281681 -0.350984 -4.791093 -13.217855 2.029423 9.864605 14.895826 -7.469637 -16.229676 0.000000 0.000000 0.000000 0.000000 0.000000 0.000000 0.225833 2.128257 -9.586721 -0.717999 -0.438917 -0.353448 2.770160 31.907428 -3.923553 0.000000 0.000000 0.000000 -0.255068 1.553184 -9.158380 0.563267 -0.021606 -0.161678 0.762835 -0.704472 -1.010403 0.000000 0.000000 0.000000
-35.677838 82.927678 356.226702 -0.370145 -0.771545 9.266581 -0.110393 -0.244575 -9.281307 0.026372 -0.142152 -0.013056 -1.367099 -2.928787 -0.635881 0.000000 0.000000 0.000000 -1.467108 -2.811340 1.356728 2.856270 4.425535 1.105193 -4.531444 -0.496684 2.884174 4.399573 -0.352991 1.387658 0.000000 0.000000 0.000000 0.000000 0.000000 0.000000 -0.953747 1.097494 0.935951 9.228979 -0.359086 -4.736863 -13.357201 2.075096 9.980183 16.016120 -7.203651 -15.114720 0.000000 0.000000 0.000000 0.000000 0.000000 0.000000 0.189326 2.094714 -9.582491 -0.762343 -0.374639 -0.385014 3.442587 36.351894 -4.827100 0.000000 0.000000 0.000000 -0.262646 1.567068 -9.173936 0.460883 0.026923 -0.191913 0.839555 -0.725012 -0.988263 0.000000 0.000000 0.000000
-35.667492 82.881040 356.163233 -0.332137 -0.794232 9.216090 -0.106473 -0.226982 -9.229204 0.024248 -0.133138 -0.011410 -1.421246 -3.137652 -0.675351 0.000000 0.000000 0.000000 -1.445571 -2.792918 1.310133 2.859319 4.409847 1.117205 -4.747535 -0.593262 3.842222 5.244280 -0.195843 -1.513920 0.000000 0.000000 0.000000 0.000000 0.000000 0.000000 -1.013034 1.049834 0.951134 9.237877 -0.295127 -4.880862 -13.746447 2.298423 10.697978 17.059492 -7.801063 -15.594049 0.000000 0.000000 0.000000 0.000000 0.000000 0.000000 0.132964 1.987929 -9.507779 -0.772413 -0.215421 -0.410926 3.789201 39.048450 -5.370387 0.000000 0.000000 0.000000 -0.257526 1.594165 -9.118484 0.378681 -0.020298 -0.224317 0.827211 -0.688876 -0.817088 0.000000 0.000000 0.000000
-35.664994 82.826781 356.089145 -0.310911 -0.801941 9.247023 -0.105234 -0.215454 -9.259261 0.019422 -0.128238 -0.010817 -1.485425 -3.270342 -0.698689 0.000000 0.000000 0.000000 -1.475020 -2.922229 1.315140 3.071912 4.544940 1.032173 -3.989532 -0.757152 4.261798 4.927257 0.059273 -2.204867 0.000000 0.000000 0.000000 0.000000 0.000000 0.000000 -1.064165 1.007087 0.975473 9.427392 -0.374469 -4.461616 -14.187054 2.433996 10.408470 17.010995 -7.520991 -15.064480 0.000000 0.000000 0.000000 0.000000 0.000000 0.000000 0.100763 1.907790 -9.522467 -0.794374 -0.026780 -0.438440 3.839057 39.362612 -5.424863 0.000000 0.000000 0.000000 -0.219002 1.599513 -9.143911 0.291119 -0.103141 -0.256957 0.821608 -0.613903 -0.698059 0.000000 0.000000 0.000000
-35.671260 82.761757 356.005700 -0.292668 -0.805691 9.305753 -0.099185 -0.207298 -9.317101 0.014595 -0.123771 -0.010119 -1.569372 -3.394557 -0.720492 0.000000 0.000000 0.000000 -1.454189 -2.853292 1.286287 3.119447 4.465931 0.967795 -3.839740 -0.844865 4.909057 5.147715 0.164576 -3.128593 0.000000 0.000000 0.000000 0.000000 0.000000 0.000000 -1.120663 0.974909 1.000891 9.442162 -0.402150 -4.219452 -14.269607 2.515088 10.195992 16.072703 -7.374541 -15.081515 0.000000 0.000000 0.000000 0.000000 0.000000 0.000000 0.075959 1.817871 -9.563438 -0.786334 0.100453 -0.447550 5.031647 46.860535 -7.202267 0.000000 0.000000 0.000000 -0.163597 1.613342 -9.192882 0.713533 -0.761299 -0.100917 -0.000000 0.000000 0.000000 0.000000 0.000000 0.000000
